<svg width="38" height="20" viewBox="0 0 38 20" fill="none" xmlns="http://www.w3.org/2000/svg">
<g clip-path="url(#clip0_23_364)">
<path d="M20.6691 14.5508L32.4556 7.05041C32.6539 6.92425 32.8034 6.7786 32.8956 6.6218C32.9878 6.46499 33.0208 6.30009 32.9928 6.13651C32.9648 5.97294 32.8763 5.81389 32.7324 5.66845C32.5885 5.523 32.392 5.39402 32.1541 5.28885C31.6736 5.07645 31.0537 4.97398 30.4307 5.00396C29.8078 5.03395 29.2328 5.19394 28.8323 5.44874L18.8572 11.7967L8.88257 5.44874C8.48206 5.19394 7.90708 5.03395 7.28412 5.00396C6.66116 4.97398 6.04125 5.07645 5.56077 5.28885C5.08029 5.50124 4.77859 5.80616 4.72204 6.13651C4.6655 6.46687 4.85874 6.79561 5.25925 7.05041L17.0454 14.5508C17.267 14.6914 17.5441 14.8045 17.8571 14.8821C18.1701 14.9597 18.5115 15 18.857 15C19.2026 15 19.5439 14.9597 19.857 14.8821C20.17 14.8045 20.4475 14.6914 20.6691 14.5508Z" fill="white"/>
</g>
<defs>
<clipPath id="clip0_23_364">
<rect width="20" height="37.7143" fill="white" transform="matrix(0 1 -1 0 37.7144 0)"/>
</clipPath>
</defs>
</svg>
