<svg width="15" height="14" viewBox="0 0 15 14" fill="none" xmlns="http://www.w3.org/2000/svg">
<path d="M10.9131 6.32744L5.28782 1.95215C5.1932 1.87853 5.08397 1.82303 4.96636 1.78881C4.84876 1.7546 4.72508 1.74234 4.6024 1.75273C4.47972 1.76312 4.36043 1.79597 4.25135 1.84939C4.14227 1.90281 4.04553 1.97576 3.96665 2.06408C3.80736 2.24244 3.7305 2.47255 3.75299 2.7038C3.77548 2.93505 3.89547 3.14849 4.08657 3.29717L8.84751 7.00002L4.08657 10.7027C3.89547 10.8514 3.77548 11.0648 3.75299 11.2961C3.7305 11.5273 3.80736 11.7575 3.96665 11.9358C4.12595 12.1142 4.35463 12.2262 4.6024 12.2472C4.85017 12.2682 5.09672 12.1964 5.28782 12.0478L10.9131 7.67261C11.0186 7.59035 11.1034 7.48749 11.1616 7.37128C11.2198 7.25508 11.25 7.12837 11.25 7.0001C11.25 6.87182 11.2198 6.74511 11.1616 6.62891C11.1034 6.51271 11.0186 6.4097 10.9131 6.32744Z" fill="white"/>
</svg>
