<svg width="36" height="36" viewBox="0 0 36 36" fill="none" xmlns="http://www.w3.org/2000/svg">
<path d="M5.625 15.75C5.32663 15.75 5.04048 15.6315 4.82951 15.4205C4.61853 15.2095 4.5 14.9234 4.5 14.625V5.62725C4.5 5.32888 4.61853 5.04273 4.82951 4.83176C5.04048 4.62078 5.32663 4.50225 5.625 4.50225H14.625C14.9234 4.50225 15.2095 4.62078 15.4205 4.83176C15.6315 5.04273 15.75 5.32888 15.75 5.62725V14.625C15.75 14.9234 15.6315 15.2095 15.4205 15.4205C15.2095 15.6315 14.9234 15.75 14.625 15.75H5.625ZM21.375 15.75C21.0766 15.75 20.7905 15.6315 20.5795 15.4205C20.3685 15.2095 20.25 14.9234 20.25 14.625V5.62725C20.25 5.32888 20.3685 5.04273 20.5795 4.83176C20.7905 4.62078 21.0766 4.50225 21.375 4.50225H30.3727C30.6711 4.50225 30.9573 4.62078 31.1682 4.83176C31.3792 5.04273 31.4977 5.32888 31.4977 5.62725V14.625C31.4977 14.9234 31.3792 15.2095 31.1682 15.4205C30.9573 15.6315 30.6711 15.75 30.3727 15.75H21.375ZM5.625 31.5C5.32663 31.5 5.04048 31.3815 4.82951 31.1705C4.61853 30.9595 4.5 30.6734 4.5 30.375V21.375C4.5 21.0766 4.61853 20.7905 4.82951 20.5795C5.04048 20.3685 5.32663 20.25 5.625 20.25H14.625C14.9234 20.25 15.2095 20.3685 15.4205 20.5795C15.6315 20.7905 15.75 21.0766 15.75 21.375V30.375C15.75 30.6734 15.6315 30.9595 15.4205 31.1705C15.2095 31.3815 14.9234 31.5 14.625 31.5H5.625ZM21.375 31.5C21.0766 31.5 20.7905 31.3815 20.5795 31.1705C20.3685 30.9595 20.25 30.6734 20.25 30.375V21.375C20.25 21.0766 20.3685 20.7905 20.5795 20.5795C20.7905 20.3685 21.0766 20.25 21.375 20.25H30.3727C30.6711 20.25 30.9573 20.3685 31.1682 20.5795C31.3792 20.7905 31.4977 21.0766 31.4977 21.375V30.375C31.4977 30.6734 31.3792 30.9595 31.1682 31.1705C30.9573 31.3815 30.6711 31.5 30.3727 31.5H21.375Z" fill="#5E2BFF"/>
</svg>
