<svg width="8" height="9" viewBox="0 0 8 9" fill="none" xmlns="http://www.w3.org/2000/svg">
<path d="M3.15076 1.36587C3.54204 0.736559 4.45796 0.73656 4.84924 1.36587L5.46048 2.34897C5.59814 2.57039 5.81685 2.72928 6.06997 2.79179L7.19383 3.06932C7.91326 3.24698 8.19629 4.11807 7.71869 4.68466L6.97259 5.56978C6.80455 5.76913 6.72102 6.02623 6.73979 6.28628L6.82313 7.4409C6.87648 8.18002 6.13549 8.71838 5.44904 8.43924L4.37669 8.00318C4.13516 7.90496 3.86484 7.90496 3.62331 8.00318L2.55096 8.43924C1.86451 8.71838 1.12352 8.18001 1.17687 7.4409L1.26021 6.28628C1.27898 6.02623 1.19545 5.76913 1.02741 5.56978L0.281313 4.68466C-0.196289 4.11807 0.0867449 3.24698 0.80617 3.06932L1.93003 2.79179C2.18315 2.72928 2.40186 2.57039 2.53952 2.34897L3.15076 1.36587Z" fill="#5E2BFF"/>
</svg>
